<svg xmlns="http://www.w3.org/2000/svg" xmlns:xlink="http://www.w3.org/1999/xlink" width="40" zoomAndPan="magnify" viewBox="0 0 30 30.000001" height="40" preserveAspectRatio="xMidYMid meet" version="1.0"><defs><clipPath id="23022d9a29"><path d="M 2.382812 7.433594 L 16.171875 7.433594 L 16.171875 21.949219 L 2.382812 21.949219 Z M 2.382812 7.433594 " clip-rule="nonzero"/></clipPath><clipPath id="e97632c34a"><path d="M 13.824219 7.433594 L 27.375 7.433594 L 27.375 21.949219 L 13.824219 21.949219 Z M 13.824219 7.433594 " clip-rule="nonzero"/></clipPath><clipPath id="7a0fef6e3e"><path d="M 11.1875 22.410156 L 13.347656 22.410156 L 13.347656 24.570312 L 11.1875 24.570312 Z M 11.1875 22.410156 " clip-rule="nonzero"/></clipPath><clipPath id="fa2a2c81dc"><path d="M 12.265625 22.410156 C 11.667969 22.410156 11.1875 22.894531 11.1875 23.492188 C 11.1875 24.089844 11.667969 24.570312 12.265625 24.570312 C 12.863281 24.570312 13.347656 24.089844 13.347656 23.492188 C 13.347656 22.894531 12.863281 22.410156 12.265625 22.410156 Z M 12.265625 22.410156 " clip-rule="nonzero"/></clipPath><clipPath id="604d12b4f3"><path d="M 16.652344 22.410156 L 18.8125 22.410156 L 18.8125 24.570312 L 16.652344 24.570312 Z M 16.652344 22.410156 " clip-rule="nonzero"/></clipPath><clipPath id="2f9f116253"><path d="M 17.734375 22.410156 C 17.136719 22.410156 16.652344 22.894531 16.652344 23.492188 C 16.652344 24.089844 17.136719 24.570312 17.734375 24.570312 C 18.332031 24.570312 18.8125 24.089844 18.8125 23.492188 C 18.8125 22.894531 18.332031 22.410156 17.734375 22.410156 Z M 17.734375 22.410156 " clip-rule="nonzero"/></clipPath><clipPath id="86f3ca218e"><path d="M 13.921875 22.410156 L 16.082031 22.410156 L 16.082031 24.570312 L 13.921875 24.570312 Z M 13.921875 22.410156 " clip-rule="nonzero"/></clipPath><clipPath id="e0517fe626"><path d="M 15 22.410156 C 14.402344 22.410156 13.921875 22.894531 13.921875 23.492188 C 13.921875 24.089844 14.402344 24.570312 15 24.570312 C 15.597656 24.570312 16.082031 24.089844 16.082031 23.492188 C 16.082031 22.894531 15.597656 22.410156 15 22.410156 Z M 15 22.410156 " clip-rule="nonzero"/></clipPath></defs><g clip-path="url(#23022d9a29)"><path fill="#303192" d="M 5.542969 27.53125 L 2.609375 27.53125 C 2.480469 27.53125 2.386719 27.425781 2.386719 27.296875 L 2.386719 7.660156 C 2.386719 7.527344 2.480469 7.433594 2.609375 7.433594 L 5.542969 7.433594 C 5.671875 7.433594 5.765625 7.527344 5.765625 7.660156 L 5.765625 8.433594 C 6.871094 7.777344 8.097656 7.433594 9.390625 7.433594 C 13.265625 7.433594 16.40625 10.578125 16.40625 14.453125 C 16.40625 18.335938 13.265625 21.46875 9.390625 21.46875 C 8.109375 21.46875 6.871094 21.125 5.765625 20.480469 L 5.765625 27.296875 C 5.765625 27.425781 5.671875 27.53125 5.542969 27.53125 Z M 9.390625 18.605469 C 7.09375 18.605469 5.210938 16.746094 5.210938 14.441406 C 5.210938 12.144531 7.082031 10.261719 9.390625 10.261719 C 11.699219 10.261719 13.558594 12.132812 13.558594 14.441406 C 13.558594 16.746094 11.675781 18.605469 9.390625 18.605469 Z M 9.390625 18.605469 " fill-opacity="1" fill-rule="evenodd"/></g><g clip-path="url(#e97632c34a)"><path fill="#7367f0" d="M 24.453125 27.53125 L 27.386719 27.53125 C 27.515625 27.53125 27.609375 27.425781 27.609375 27.296875 L 27.609375 7.660156 C 27.609375 7.527344 27.515625 7.433594 27.386719 7.433594 L 24.453125 7.433594 C 24.324219 7.433594 24.230469 7.527344 24.230469 7.660156 L 24.230469 8.433594 C 23.125 7.777344 21.898438 7.433594 20.605469 7.433594 C 16.730469 7.433594 13.589844 10.578125 13.589844 14.453125 C 13.589844 18.335938 16.730469 21.46875 20.605469 21.46875 C 21.886719 21.46875 23.125 21.125 24.230469 20.480469 L 24.230469 27.296875 C 24.230469 27.425781 24.324219 27.53125 24.453125 27.53125 Z M 20.605469 18.605469 C 22.902344 18.605469 24.785156 16.746094 24.785156 14.441406 C 24.785156 12.144531 22.914062 10.261719 20.605469 10.261719 C 18.296875 10.261719 16.4375 12.132812 16.4375 14.441406 C 16.4375 16.746094 18.320312 18.605469 20.605469 18.605469 Z M 20.605469 18.605469 " fill-opacity="1" fill-rule="evenodd"/></g><g clip-path="url(#7a0fef6e3e)"><g clip-path="url(#fa2a2c81dc)"><path fill="#46b0ef" d="M 11.1875 22.410156 L 13.347656 22.410156 L 13.347656 24.570312 L 11.1875 24.570312 Z M 11.1875 22.410156 " fill-opacity="1" fill-rule="nonzero"/></g></g><g clip-path="url(#604d12b4f3)"><g clip-path="url(#2f9f116253)"><path fill="#f5af3c" d="M 16.652344 22.410156 L 18.8125 22.410156 L 18.8125 24.570312 L 16.652344 24.570312 Z M 16.652344 22.410156 " fill-opacity="1" fill-rule="nonzero"/></g></g><g clip-path="url(#86f3ca218e)"><g clip-path="url(#e0517fe626)"><path fill="#e9467b" d="M 13.921875 22.410156 L 16.082031 22.410156 L 16.082031 24.570312 L 13.921875 24.570312 Z M 13.921875 22.410156 " fill-opacity="1" fill-rule="nonzero"/></g></g></svg>